<svg xmlns="http://www.w3.org/2000/svg" width="50" height="50"><defs><clipPath id="a"><circle data-name="Ellipse 122" cx="25" cy="25" r="25" transform="translate(1034 3445)" fill="#fff" stroke="#707070"/></clipPath></defs><g data-name="Group 123" transform="translate(-1034 -3445)" clip-path="url(#a)"><g data-name="3069758_circle_discord_gaming_messenger_round icon_icon"><path data-name="Exclusion 5" d="M1059 3495a24.847 24.847 0 01-9.731-1.964 24.914 24.914 0 01-7.947-5.358 24.91 24.91 0 01-5.358-7.946A24.845 24.845 0 011034 3470a24.848 24.848 0 011.965-9.732 24.907 24.907 0 015.358-7.947 24.924 24.924 0 017.947-5.358A24.847 24.847 0 011059 3445a24.841 24.841 0 019.731 1.965 24.909 24.909 0 017.946 5.358 24.92 24.92 0 015.358 7.947A24.858 24.858 0 011084 3470a24.854 24.854 0 01-1.964 9.731 24.912 24.912 0 01-5.358 7.946 24.914 24.914 0 01-7.946 5.358A24.841 24.841 0 011059 3495zm-4.249-36.367a14.99 14.99 0 00-7.1 2.842 20.19 20.19 0 00-1.9 3.93 40.131 40.131 0 00-2.364 11.694 12.518 12.518 0 005.988 3.715 13.314 13.314 0 003.24.543l1.163-1.552a14.142 14.142 0 01-6.132-4.132 18.116 18.116 0 0011.367 3.555 20.318 20.318 0 006.917-1.122 16.6 16.6 0 004.442-2.427 14.118 14.118 0 01-6.125 4.126l1.162 1.552a13.362 13.362 0 003.241-.543 12.517 12.517 0 005.988-3.715 40.269 40.269 0 00-2.381-11.694 20.626 20.626 0 00-1.9-3.929 15.168 15.168 0 00-7.1-2.844l-.342.694a13.805 13.805 0 016.739 3.565 21.023 21.023 0 00-10.654-2.843 21.02 21.02 0 00-10.654 2.843 14.089 14.089 0 016.737-3.565zm8.867 15.625a2.686 2.686 0 01-2.49-2.841 2.687 2.687 0 012.49-2.843 2.688 2.688 0 012.491 2.843 2.687 2.687 0 01-2.49 2.841zm-9.238 0a2.686 2.686 0 01-2.49-2.841 2.687 2.687 0 012.49-2.843 2.687 2.687 0 012.49 2.843 2.686 2.686 0 01-2.489 2.841z" fill="#DEF530"/></g></g></svg>