<svg version="1.1" id="Layer_1" xmlns="http://www.w3.org/2000/svg" x="0" y="0" viewBox="0 0 40 40" xml:space="preserve"><style>.st0{fill:#def530}</style><path class="st0" d="M24.4 11.2h-8.9c-1.3 0-2.4.4-3.2 1.1-.7.7-1.1 1.9-1.1 3.2v8.9c0 1.3.4 2.4 1.2 3.2.8.7 1.9 1.1 3.2 1.1h8.8c1.3 0 2.4-.4 3.2-1.1.8-.7 1.2-1.9 1.2-3.2v-8.9c0-1.3-.4-2.3-1.1-3.2-.9-.7-1.9-1.1-3.3-1.1zM20 25.4c-3.1 0-5.5-2.5-5.5-5.5 0-3.1 2.5-5.5 5.5-5.5s5.6 2.4 5.6 5.5c-.1 3.1-2.6 5.5-5.6 5.5zm5.7-9.9c-.7 0-1.3-.6-1.3-1.3s.6-1.3 1.3-1.3 1.3.6 1.3 1.3-.6 1.3-1.3 1.3z"/><path class="st0" d="M20 16.4c-2 0-3.6 1.6-3.6 3.6s1.6 3.6 3.6 3.6 3.6-1.6 3.6-3.6c-.1-2-1.7-3.6-3.6-3.6z"/><path class="st0" d="M20 0C8.9 0 0 8.9 0 20s8.9 20 20 20 20-8.9 20-20c.1-11.1-8.9-20-20-20zm10.7 24.4c0 1.9-.6 3.5-1.8 4.6-1.1 1.1-2.8 1.7-4.5 1.7h-8.8c-1.8 0-3.4-.6-4.5-1.7-1.2-1.1-1.8-2.8-1.8-4.6v-8.9c0-3.7 2.5-6.3 6.3-6.3h8.9c1.9 0 3.4.6 4.5 1.8 1.1 1.1 1.7 2.7 1.7 4.5v8.9z"/></svg>