<svg width="40" height="40" xmlns="http://www.w3.org/2000/svg"><path d="M20 0c11.045 0 20 8.955 20 20s-8.955 20-20 20S0 31.045 0 20 8.955 0 20 0zm1.038 13.114a4.117 4.117 0 00-1.188 3.92 11.65 11.65 0 01-8.458-4.288 4.108 4.108 0 001.273 5.48 4.12 4.12 0 01-1.865-.511v.052a4.107 4.107 0 003.293 4.024 4.141 4.141 0 01-1.853.072 4.11 4.11 0 003.833 2.853 8.208 8.208 0 01-6.073 1.7 11.685 11.685 0 006.285 1.837c7.546 0 11.679-6.254 11.679-11.679 0-.176 0-.356-.012-.532A8.406 8.406 0 0030 13.918a8.187 8.187 0 01-2.356.648 4.13 4.13 0 001.804-2.268 8.285 8.285 0 01-2.605.996 4.108 4.108 0 00-5.805-.18z" fill="#DEF530"/></svg>